<svg version="1" xmlns="http://www.w3.org/2000/svg" width="933.333" height="933.333" viewBox="0 0 700.000000 700.000000"><path d="M68.9 68.7c-.1 2.4-.1 505.4 0 507.3.1 1.4 9.4 1.5 81 1.5l81-.1 1.1 2.6c.7 1.4 4.1 7 7.7 12.5 33.3 51.1 81.6 83.6 140.9 95 4.3.8 9.9 1.8 12.4 2.1 2.5.3 5.6.7 7 1 4.4.7 26.2 1.8 35.5 1.7 23-.2 41.4-2.4 61.5-7.3 39.5-9.8 69.4-26.3 97.9-54.3 13.9-13.7 24.7-27.3 35.8-45.2 13.5-21.7 28.6-63.1 32.7-90 .4-2.2.8-5.1 1.1-6.5 3.3-20.2 4-31.8 3.9-63 0-25.5-.5-37.3-1.9-45-.3-1.4-.7-5-1-8-.3-3-.8-6.2-1-7-.2-.8-.7-3.1-1-5-5.2-31.9-16.7-63.5-33.4-91.9-19.3-32.7-50.1-62.3-83.6-80.2-21.2-11.3-53.3-21.3-75-23.4-13-1.2-12.5-1-18.5-9.3-5.5-7.6-23.8-26.9-31.5-33-6.9-5.6-22.7-15.8-31.6-20.5-25.9-13.8-66.6-26.1-99.4-30.2-2.7-.3-5.9-.8-7-1-2.2-.4-8.8-1.1-20-2-3.8-.3-8.8-.8-11-1.1-2.2-.3-44.4-.8-93.7-1.1-86.9-.5-89.8-.4-89.9 1.4zm188.6 56.6c1.1.2 4.7.8 8 1.1 8.8 1 13.8 1.6 15.5 2.1.8.2 2.9.7 4.5.9 1.7.3 5 1 7.5 1.5 2.5.6 5.9 1.3 7.5 1.6 12.7 2.7 35.5 11.7 47.8 19 3.8 2.2 7.6 4.4 8.5 5 2.4 1.4 9.1 6.5 12.5 9.5 2.6 2.3 2.7 2.5 1.1 3.7-1 .7-2.6 1.3-3.6 1.3-1.1 0-8 2.1-15.5 4.6-31.9 10.6-59.8 28.2-85.4 53.7-11.7 11.7-14.4 14.7-14.4 16.1 0 .6-1.9 3.6-4.2 6.6-11.6 15.3-24.5 39.8-32.2 60.8-2.2 6.2-4.3 12.3-4.5 13.5-.3 1.2-1.5 5.6-2.6 9.7-1.2 4.1-2.3 8.8-2.6 10.5-.3 1.6-.9 4.6-1.4 6.5-.5 1.9-1.1 4.8-1.4 6.5-.2 1.6-.8 5-1.2 7.5-.4 2.5-.8 5.4-.9 6.5-.2 1.1-.6 4.2-.9 7-2 15.3-2.4 25.8-2.1 52 .2 15.9.6 30.6.8 32.5.3 1.9.8 6.2 1.1 9.5 1.1 9.6 4.5 29.3 6.7 37.7 1 4.2 1.9 7.8 1.9 8.1 0 .2-15.7.5-35 .5-26.4.1-35-.2-35.1-1.1 0-.7-.1-90-.2-198.5l-.2-197.4 59 .5c32.5.2 59.9.7 61 1zM413 235.7c.9.8 5.2 17.6 6.4 24.3.3 1.9.8 4.4 1 5.6.2 1.2.7 4.5 1.1 7.4.4 2.9.8 6 1 6.9 2.6 13.7 2.6 68.2 0 84.2-.2 1.3-.6 4.2-.9 6.4-1.2 8.6-3.1 19-4.2 23-.2.5-.6 2.3-.9 4-1.1 5.3-8.3 25.9-11.6 33-19.6 42.5-53.5 68.9-104.4 81.4-6.6 1.6-13.7 3.2-15.7 3.5-4.1.7-3.4 2.1-7.2-13-1.7-7-4.3-21.7-5.2-29-.3-2.7-.7-6-.9-7.3-.7-4-1.8-28.1-1.8-38.1 0-9.5 1.1-32.9 1.8-38.5.2-1.7.7-5.7 1-9 .4-3.3.8-6.2 1-6.5.2-.3.6-2.7.9-5.4.4-2.7.9-5.2 1.1-5.5.1-.3.6-2.4.9-4.6.9-5.8 6.8-26.7 8.7-31 .4-1.1 1.8-4.5 2.9-7.5 5.1-13.4 16.5-33.3 25.7-44.8 10.9-13.7 27.2-28.3 35.6-32 6.5-2.9 23.6-7 32.7-8 9.3-1 29.9-.7 31 .5zm112.8 12.8c24.9 19.7 44.8 48.9 56.1 82.1 3.3 9.9 7.5 25.6 8.6 32.4.4 2.5.9 5.4 1.1 6.5 5.2 26.1 6.1 69.3 2.3 100.5-1.7 14-4.8 31.2-6.9 38.5-7.3 25-16 44.4-27.5 61.5-8.2 12.1-9.2 13.4-19.9 24.2-20.4 20.6-42.2 32.5-70.6 38.3-14.9 3.1-19.9 3.6-35 3.6-17.6.1-26-.9-41.9-4.8-24.8-6.1-47-18.5-65.3-36.7-7.6-7.5-21.4-24.4-20.6-25.1.2-.2 2.1-.5 4.3-.8 2.2-.3 11-2.4 19.5-4.5 45.1-11.6 79.6-30 106.4-56.8 26.1-26.2 44.4-62.6 53.7-106.9 2.8-13.4 3-14.6 3.3-17.5.4-3.9 1.7-14.2 2.2-16.9 2.8-18.1 2.2-74.2-1.1-96.7-.3-2.2-.8-6-1.1-8.5-.3-2.4-.9-6-1.4-7.9-.6-1.9-1-4.5-1-5.8 0-2.2.1-2.2 15.3-2.2h15.2l4.3 3.5z"/></svg>