<svg xmlns="http://www.w3.org/2000/svg" xmlns:xlink="http://www.w3.org/1999/xlink" width="44" height="69.016" viewBox="0 0 44 69.016">
  <defs>
    <clipPath id="clip-path">
      <rect width="44" height="69.016" fill="none"/>
    </clipPath>
  </defs>
  <g id="ShorterLogo" clip-path="url(#clip-path)">
    <text id="O" transform="translate(9 49)" font-size="40" font-family="Roboto-Regular, Roboto"><tspan x="0" y="0">O</tspan></text>
    <text id="D" transform="translate(0 43)" fill="#38b963" font-size="40" font-family="Roboto-Regular, Roboto"><tspan x="0" y="0">D</tspan></text>
    <path id="Subtraction" data-name="Subtraction" d="M-75.295,89h-5.352a10.187,10.187,0,0,1,2.411-2.158,10.869,10.869,0,0,1,5.967-1.67,11.074,11.074,0,0,1,6.025,1.651A9.991,9.991,0,0,1-63.81,89l-5.366,0a7.586,7.586,0,0,0-3.093-.606A7.315,7.315,0,0,0-75.295,89Z" transform="translate(95 -65)" stroke="rgba(0,0,0,0)" stroke-width="1"/>
  </g>
</svg>
